<svg data-v-fde0c5aa="" xmlns="http://www.w3.org/2000/svg" viewBox="0 0 300 300" class="iconLeft"><!----><defs data-v-fde0c5aa=""><!----></defs><rect data-v-fde0c5aa="" fill="#fb7e14" x="0" y="0" width="300px" height="300px" class="logo-background-square"></rect><defs data-v-fde0c5aa=""><!----></defs><g data-v-fde0c5aa="" id="3e2b4b10-b97f-4e04-8ee3-fa7a2f3553d8" fill="#FFFA00" transform="matrix(2.7434487657496693,0,0,2.7434487657496693,96.46301739919397,126.06340912638063)"><path d="M2.73 5.52L7.49 5.52L7.49 4.36L1.50 4.36L1.50 13.52L2.73 13.52L2.73 9.75L6.67 9.75L6.67 8.59L2.73 8.59ZM12.66 6.55C10.79 6.55 9.37 7.96 9.37 10.21C9.37 12.29 10.79 13.73 12.55 13.73C13.59 13.73 14.42 13.08 14.90 12.36L14.90 13.52L16.02 13.52L16.02 6.69L14.90 6.69L14.90 7.60C14.31 6.95 13.44 6.55 12.66 6.55ZM12.87 7.64C13.70 7.64 14.31 8.07 14.89 8.78L14.90 10.09C14.92 11.55 13.97 12.63 12.73 12.63C11.40 12.63 10.53 11.54 10.53 10.21C10.53 8.89 11.40 7.64 12.87 7.64ZM21.16 6.55C19.29 6.55 17.87 7.96 17.87 10.21C17.87 12.29 19.29 13.73 21.05 13.73C22.09 13.73 22.93 13.08 23.41 12.36L23.41 13.52L24.53 13.52L24.53 6.69L23.41 6.69L23.41 7.60C22.82 6.95 21.94 6.55 21.16 6.55ZM21.37 7.64C22.20 7.64 22.82 8.07 23.39 8.78L23.41 10.09C23.42 11.55 22.48 12.63 21.23 12.63C19.91 12.63 19.03 11.54 19.03 10.21C19.03 8.89 19.91 7.64 21.37 7.64ZM29.41 4.22C27.78 4.22 26.37 5.35 26.37 6.79C26.37 7.82 26.76 8.59 28.07 9.17L29.59 9.86C30.15 10.10 30.90 10.49 30.90 11.17C30.90 11.98 30.09 12.46 29.18 12.46C28.01 12.46 27.10 11.99 26.39 11.50L26.39 12.77C27.04 13.23 27.96 13.66 29.01 13.66C30.69 13.66 32.16 12.61 32.16 11.12C32.16 9.97 31.51 9.37 30.26 8.79L29.00 8.22C28.25 7.88 27.64 7.57 27.64 6.84C27.64 5.85 28.71 5.43 29.54 5.43C30.39 5.43 31.14 5.84 31.66 6.22L31.66 4.95C31.13 4.61 30.49 4.22 29.41 4.22ZM34.89 11.85C34.36 11.85 33.93 12.28 33.93 12.81C33.93 13.33 34.36 13.77 34.89 13.77C35.41 13.77 35.85 13.33 35.85 12.81C35.85 12.28 35.41 11.85 34.89 11.85ZM41.19 6.55C39.12 6.55 37.63 8.20 37.63 10.14C37.63 12.09 39.12 13.73 41.19 13.73C43.27 13.73 44.76 12.09 44.76 10.14C44.76 8.20 43.27 6.55 41.19 6.55ZM41.19 7.64C42.66 7.64 43.60 8.82 43.60 10.14C43.60 11.47 42.66 12.63 41.19 12.63C39.73 12.63 38.79 11.47 38.79 10.14C38.79 8.82 39.73 7.64 41.19 7.64ZM49.15 13.52L52.36 6.69L51.02 6.69L48.78 11.72L46.72 6.69L45.38 6.69L48.45 13.52ZM57.08 6.55C56.15 6.55 55.28 7.23 54.85 7.77L54.85 3.68L53.73 3.68L53.73 13.52L54.85 13.52L54.85 8.98C55.40 8.27 56.16 7.64 56.89 7.64C57.97 7.64 58.47 8.29 58.47 9.46L58.49 13.52L59.61 13.52L59.61 9.35C59.61 7.46 58.47 6.55 57.08 6.55Z"></path></g><defs data-v-fde0c5aa=""><!----></defs><g data-v-fde0c5aa="" id="ae7c02db-cd04-4bc5-8742-426d28d08c21" stroke="none" fill="#EC975B" transform="matrix(0.4757349388483271,0,0,0.4757349388483271,40.00235005988043,126.2132249284197)"><defs><style>.cls-1{fill:#020202}</style></defs><path class="cls-1" d="M41.34 41.17a2.5 2.5 0 0 0 0 5c3.8 0 5.21 2.42 6.66 5.59l.24.51c.2.43.63 1.39 1.21 2.67L35.8 79.1a2.5 2.5 0 0 0 4.35 2.46L52 60.63c3.17 7.16 7.16 16.19 7.23 16.34a9.47 9.47 0 0 0 11.56 5.43 2.5 2.5 0 0 0-1.48-4.78 4.48 4.48 0 0 1-5.51-2.7c-.4-.9-9.74-22.09-11-24.78l-.22-.48c-1.29-2.74-3.92-8.49-11.24-8.49z"></path><path class="cls-1" d="M99.67 89.89L52.17 7.61a2.5 2.5 0 0 0-4.33 0L.33 89.89a2.5 2.5 0 0 0 2.17 3.75h95a2.5 2.5 0 0 0 2.17-3.75zM6.83 88.64L50 13.86l43.17 74.78z"></path></g><!----></svg>