<svg data-v-423bf9ae="" xmlns="http://www.w3.org/2000/svg" viewBox="0 0 371.9884145147013 163" class="iconAbove"><!----><!----><!----><g data-v-423bf9ae="" id="ee55c2f9-bf7d-4fd3-8f32-38ab755e3d40" fill="black" transform="matrix(5.791505450303629,0,0,5.791505450303629,-10.94593877528186,82.15058236173941)"><path d="M1.89 13.78L3.05 13.78L3.05 9.63L6.82 9.63L6.82 8.65L3.05 8.65L3.05 5.52L7.50 5.52L7.50 4.54L1.89 4.54ZM11.84 13.96C12.81 13.96 13.78 13.41 14.53 12.80L14.57 12.80L14.67 13.78L15.61 13.78L15.61 9.38C15.61 7.63 14.71 6.47 12.85 6.47C11.66 6.47 10.65 7.03 10.11 7.49L10.56 8.29C11.05 7.87 11.77 7.42 12.66 7.42C13.97 7.42 14.43 8.27 14.46 9.25C10.95 9.56 9.53 10.33 9.53 11.94C9.53 13.22 10.57 13.96 11.84 13.96ZM12.15 13.03C11.37 13.03 10.65 12.68 10.65 11.86C10.65 10.89 11.55 10.28 14.46 10.02L14.46 11.94C13.69 12.64 12.92 13.03 12.15 13.03ZM20.24 13.96C21.21 13.96 22.18 13.41 22.93 12.80L22.97 12.80L23.07 13.78L24.01 13.78L24.01 9.38C24.01 7.63 23.11 6.47 21.25 6.47C20.06 6.47 19.05 7.03 18.51 7.49L18.96 8.29C19.45 7.87 20.17 7.42 21.06 7.42C22.37 7.42 22.83 8.27 22.86 9.25C19.35 9.56 17.93 10.33 17.93 11.94C17.93 13.22 18.97 13.96 20.24 13.96ZM20.55 13.03C19.77 13.03 19.05 12.68 19.05 11.86C19.05 10.89 19.95 10.28 22.86 10.02L22.86 11.94C22.09 12.64 21.32 13.03 20.55 13.03ZM29.47 13.94C31.49 13.94 32.72 12.78 32.72 11.31C32.72 9.94 31.81 9.34 30.69 8.85L29.40 8.29C28.62 7.95 27.76 7.63 27.76 6.75C27.76 5.91 28.48 5.39 29.58 5.39C30.49 5.39 31.19 5.73 31.79 6.26L32.41 5.50C31.74 4.83 30.73 4.37 29.58 4.37C27.83 4.37 26.57 5.40 26.57 6.82C26.57 8.16 27.64 8.83 28.56 9.20L29.88 9.77C30.81 10.18 31.53 10.46 31.53 11.41C31.53 12.32 30.79 12.92 29.48 12.92C28.48 12.92 27.52 12.46 26.84 11.76L26.14 12.57C26.96 13.41 28.13 13.94 29.47 13.94ZM37.80 13.94C38.43 13.94 38.93 13.47 38.93 12.77C38.93 12.05 38.43 11.58 37.80 11.58C37.17 11.58 36.67 12.05 36.67 12.77C36.67 13.47 37.17 13.94 37.80 13.94ZM46.20 13.96C47.99 13.96 49.56 12.59 49.56 10.22C49.56 7.83 47.99 6.47 46.20 6.47C44.41 6.47 42.84 7.83 42.84 10.22C42.84 12.59 44.41 13.96 46.20 13.96ZM46.20 13.01C44.90 13.01 44.03 11.89 44.03 10.22C44.03 8.55 44.90 7.42 46.20 7.42C47.50 7.42 48.37 8.55 48.37 10.22C48.37 11.89 47.50 13.01 46.20 13.01ZM53.98 13.78L55.27 13.78L58.09 6.64L56.98 6.64L55.41 10.74C55.13 11.45 54.91 12.17 54.67 12.82L54.61 12.82C54.38 12.17 54.12 11.45 53.84 10.74L52.28 6.64L51.11 6.64ZM60.10 13.78L61.25 13.78L61.25 8.79C62.05 7.90 62.59 7.46 63.41 7.46C64.53 7.46 64.97 8.12 64.97 9.49L64.97 13.78L66.12 13.78L66.12 9.34C66.12 7.46 65.38 6.47 63.77 6.47C62.71 6.47 61.92 7.07 61.19 7.88L61.25 6.17L61.25 3.60L60.10 3.60Z"></path></g><!----><g data-v-423bf9ae="" id="9349c504-b940-4f8e-a069-542e09d557f1" transform="matrix(1.0311652558651694,0,0,1.0311652558651694,134.43679347231145,-6.1982144345757035)" stroke="none" fill="black"><defs><style>.cls-1{fill:#020202}</style></defs><path class="cls-1" d="M41.34 41.17a2.5 2.5 0 0 0 0 5c3.8 0 5.21 2.42 6.66 5.59l.24.51c.2.43.63 1.39 1.21 2.67L35.8 79.1a2.5 2.5 0 0 0 4.35 2.46L52 60.63c3.17 7.16 7.16 16.19 7.23 16.34a9.47 9.47 0 0 0 11.56 5.43 2.5 2.5 0 0 0-1.48-4.78 4.48 4.48 0 0 1-5.51-2.7c-.4-.9-9.74-22.09-11-24.78l-.22-.48c-1.29-2.74-3.92-8.49-11.24-8.49z"></path><path class="cls-1" d="M99.67 89.89L52.17 7.61a2.5 2.5 0 0 0-4.33 0L.33 89.89a2.5 2.5 0 0 0 2.17 3.75h95a2.5 2.5 0 0 0 2.17-3.75zM6.83 88.64L50 13.86l43.17 74.78z"></path></g><!----></svg>