<svg data-v-fde0c5aa="" xmlns="http://www.w3.org/2000/svg" viewBox="0 0 300 300" class="icon"><!----><defs data-v-fde0c5aa=""><!----></defs><rect data-v-fde0c5aa="" fill="#fb7e14" x="0" y="0" width="300px" height="300px" class="logo-background-square"></rect><!----><defs data-v-fde0c5aa=""><!----></defs><g data-v-fde0c5aa="" id="537ae225-01cb-4c7b-b2e0-8beef685f477" fill="#EC975B" stroke="none" transform="matrix(2.1997828278366685,0,0,2.1997828278366685,40.010866600174175,40.01072853983073)"><defs><style>.cls-1{fill:#020202}</style></defs><path class="cls-1" d="M41.34 41.17a2.5 2.5 0 0 0 0 5c3.8 0 5.21 2.42 6.66 5.59l.24.51c.2.43.63 1.39 1.21 2.67L35.8 79.1a2.5 2.5 0 0 0 4.35 2.46L52 60.63c3.17 7.16 7.16 16.19 7.23 16.34a9.47 9.47 0 0 0 11.56 5.43 2.5 2.5 0 0 0-1.48-4.78 4.48 4.48 0 0 1-5.51-2.7c-.4-.9-9.74-22.09-11-24.78l-.22-.48c-1.29-2.74-3.92-8.49-11.24-8.49z"></path><path class="cls-1" d="M99.67 89.89L52.17 7.61a2.5 2.5 0 0 0-4.33 0L.33 89.89a2.5 2.5 0 0 0 2.17 3.75h95a2.5 2.5 0 0 0 2.17-3.75zM6.83 88.64L50 13.86l43.17 74.78z"></path></g><!----></svg>